<?xml version="1.0" encoding="utf-8"?>
<!-- Generator: Adobe Illustrator 23.0.1, SVG Export Plug-In . SVG Version: 6.00 Build 0)  -->
<svg version="1.1" id="Layer_1" xmlns="http://www.w3.org/2000/svg" xmlns:xlink="http://www.w3.org/1999/xlink" x="0px" y="0px"
	 viewBox="0 0 500 500" style="enable-background:new 0 0 500 500;" xml:space="preserve">
<style type="text/css">
	.st0{display:none;fill:#72C7F0;}
	.st1{display:none;}
	.st2{display:inline;fill:#FFFFFF;}
	.st3{fill:#8DC63F;}
	.st4{fill:#67CCE6;}
	.st5{fill:#F15A29;}
	.st6{fill:#FFFFFF;}
</style>
<path class="st0" d="M478.25,390.16c7.26-1.41,12.75-7.8,12.75-15.48v-41.28l-32.38-217.66c-0.59-3.95-3.98-6.88-7.98-6.88h-0.94
	c1.04-42.74-12.07-73.23-24.29-86.85c-6.04-6.73-12.62-10.42-19.03-10.68c-6.22-0.25-12.72,2.71-18.84,8.55
	c-13.06,12.46-28.44,43.23-28.78,88.92l6.42,0.05h-4.81c-2,0-3.92,0.41-5.68,1.13H140.91c-8.22-14.68-21.44-24.77-40.48-24.77
	c-8.36,0-23.69,6.04-39.32,14.05c-5.97-1.98-12.78-1.03-18.1,3.14l-32.97,25.86c-8.44,6.62-9.91,18.82-3.3,27.26l4.62,5.89
	c6.62,8.44,18.82,9.91,27.26,3.3l32.97-25.86c3.52-2.76,5.8-6.49,6.82-10.51c5.57-3.63,10.41-5.98,13.9-5.98
	c24.94,0,31.8,8.04,31.8,32.82c-0.21,30.19-4.92,35.59-25.78,75.22c-12.22,23.23-28.33,44.21-40.9,67.25
	C51.9,307.81,49,319.19,49,330.75v2.66v41.28c0,0.03,0,0.06,0,0.08h0v0c0,8.71,7.06,15.77,15.77,15.77h21.29
	c-23.15,3.06-41.03,22.85-41.03,46.84c0,26.1,21.16,47.26,47.26,47.26s47.26-21.16,47.26-47.26c0-23.99-17.87-43.79-41.03-46.84
	H437.5c-23.15,3.06-41.03,22.85-41.03,46.84c0,26.1,21.16,47.26,47.26,47.26c26.1,0,47.26-21.16,47.26-47.26
	c0-23.99-17.87-43.79-41.03-46.84h24.86C476.01,390.54,477.15,390.4,478.25,390.16z M115.6,437.38c0,12.87-10.43,23.29-23.29,23.29
	s-23.29-10.43-23.29-23.29c0-12.87,10.43-23.29,23.29-23.29S115.6,424.52,115.6,437.38z M467.03,437.38
	c0,12.87-10.43,23.29-23.29,23.29c-12.87,0-23.29-10.43-23.29-23.29c0-12.87,10.43-23.29,23.29-23.29
	C456.6,414.09,467.03,424.52,467.03,437.38z M135.16,289.29c0.77-7.85,2.14-14.57,4.13-20.14c2.06-5.76,4.2-8.63,6.43-8.63
	c3.37,0,5.06,7.26,5.06,21.77c0,8.89-0.61,16.78-1.8,23.71h-11.96C135.81,298.16,135.19,292.58,135.16,289.29z M163.86,297.17
	c1.68-8.54,4.05-16.49,7.1-23.83c3.54-8.61,6.75-12.92,9.63-12.92c1.74,0,2.6,2.17,2.6,6.52c0,5.57-1.28,13.57-3.83,24
	c-1.5,6.11-2.93,11.13-4.27,15.08h-11.11C163.91,303.5,163.86,300.56,163.86,297.17z M204.94,302.65c1.41-3.44,2.73-7.6,3.94-12.49
	c1.07-4.27,2.01-8.52,2.83-12.76c8.65,1.41,15.02,2.41,19.11,2.99c0.77,3.77,1.15,9,1.15,15.69c0,3.28-0.1,6.59-0.28,9.92H216.1
	c0.06-0.64,0.11-1.28,0.17-1.94C210.18,303.63,206.4,303.16,204.94,302.65z M268.99,271.08c0-4.16,0.1-6.68,0.3-7.55
	c3.4,2.35,5.7,5.25,6.92,8.69c0.89,2.43,1.44,6.14,1.64,11.13c0.27,7.06,0.57,11.89,0.89,14.5c0.44,3.43,1.55,6.13,3.31,8.15h-9.17
	C270.29,293.17,268.99,281.53,268.99,271.08z M266.87,245.4c0-2.03,1.47-3.74,4.42-5.13c2.95-1.39,6.42-2.09,10.41-2.09
	c4.81,0,9.43,1.42,13.85,4.26c4.42,2.84,6.64,5.78,6.64,8.82c0,2.03-1.44,3.62-4.31,4.78c-2.5,0.98-5.59,1.47-9.26,1.47
	c-3.72,0-7.98-1.01-12.79-3.04C269.86,251.93,266.87,248.91,266.87,245.4z M338.9,168.82H150.99c0.4-4.14,0.6-8.35,0.6-12.63
	c0-0.33-0.01-0.67-0.01-1.01h189.24L338.9,168.82z M212.93,260.14c0-3.55,1.41-6.68,4.24-9.39c2.7-2.61,5.73-3.91,9.07-3.91
	c4.61,0,6.92,2.48,6.92,7.44c0,8.62-3.98,12.92-11.93,12.92C215.69,267.2,212.93,264.84,212.93,260.14z M110.01,333.41l17.15,41.36
	h-17.4l-17.15-41.36H110.01z M127.08,333.41h13.92l17.15,41.36h-13.92L127.08,333.41z M158.08,333.41h13.92l17.15,41.36h-13.92
	L158.08,333.41z M189.08,333.41h13.92l17.15,41.36h-13.92L189.08,333.41z M220.08,333.41h13.92l17.15,41.36h-13.92L220.08,333.41z
	 M251.08,333.41H265l17.15,41.36h-13.92L251.08,333.41z M282.08,333.41H296l17.15,41.36h-13.92L282.08,333.41z M313.08,333.41h2.72
	H327l17.15,41.36h-13.92L313.08,333.41z M310.67,306c3.57-2.29,6.48-5.72,8.7-10.32c1.33-2.75,2.27-5.46,2.87-8.11L319.65,306
	H310.67z M344.08,333.41H358l17.15,41.36h-13.92L344.08,333.41z M375.08,333.41H389l17.15,41.36h-13.92L375.08,333.41z
	 M406.08,333.41H420l17.15,41.36h-13.92L406.08,333.41z M437.08,333.41H451l17.15,41.36h-13.92L437.08,333.41z M475.23,350.65
	l-7.15-17.24h7.15V350.65z M396.39,29.18c3.5-3.34,6.85-5.13,9.49-5.02c2.79,0.11,6.43,2.45,10,6.43
	c11.46,12.77,21.91,41.48,21,78.29h-65.3C371.88,69.88,384.26,40.75,396.39,29.18z M344.94,125.78l-1.91,13.63H150.39
	c-0.68-4.67-1.67-9.24-2.96-13.63H344.94z M148.51,184.59h188.18l-13.76,98.03c0.03-0.48,0.05-0.97,0.05-1.45
	c0-2.32-0.57-4.41-1.71-6.3c-1.34-2.24-3.14-3.37-5.39-3.37c-1.54,0-3.23,0.53-5.09,1.58c-3.84,2.14-6.93,4.8-9.26,7.98
	c-2.11,2.86-3.16,5.5-3.16,7.93c0,0.58,0.06,1.07,0.19,1.47c0.87,3.15,2.96,4.72,6.28,4.72c1.34,0,3.06-0.35,5.17-1.06
	c2.11-0.71,3.33-1.06,3.68-1.06c0.52,0,0.78,0.24,0.78,0.71c0,1.34-1.72,2.99-5.17,4.94c-3.55,2.03-6.73,3.04-9.56,3.04
	c-3.55,0-5.32-2.23-5.32-6.68c0-1.7,0.2-4.04,0.61-7.03c0.41-2.99,0.61-5.09,0.61-6.33c0-3-0.92-5.5-2.75-7.49
	c-2.26-2.39-6.16-4.43-11.71-6.14c2.73,0.43,5.3,0.65,7.73,0.65c7.41,0,13.66-2.04,18.74-6.14c5.8-4.63,8.7-10.93,8.7-18.89
	c0-5.28-1.18-9.54-3.53-12.76c-2.78-3.8-6.9-5.7-12.38-5.7c-1.14,0-4.24,0.24-9.31,0.73c-5.07,0.49-8.72,0.73-10.95,0.73
	c-5.18,0-9.73-0.85-13.65-2.55c-4.66-2.03-9.17-5.52-13.53-10.48l-2.38,12.81c1.54,2.06,3.62,3.09,6.25,3.09
	c0.97,0,1.71-0.07,2.23-0.22c-2.93,10.42-5.06,21.74-6.4,33.93c-0.68,6.39-1.32,15.56-1.92,27.49c-2.67-11.29-4.87-20.58-6.59-27.85
	c-4.39-17.59-8.42-30.75-12.08-39.47c-3.77,1.85-7.28,3.29-10.52,4.34c-3.15,0.98-6.57,1.79-10.26,2.44
	c-0.25,9.66-1.96,22.01-5.13,37.03c-3,14.33-6.37,25.27-10.11,32.79c-1.96-1.3-3.38-2.22-4.28-2.77l-1.97,3.96
	c-0.21,0.43-0.41,0.84-0.61,1.24l-1.09-0.32c9.96-12.49,14.95-25.5,14.95-39.04c0-6.84-1.34-12.51-4.01-16.99
	c-2.65-4.38-5.94-6.57-9.85-6.57c-5.5,0-10.56,4.18-15.17,12.54c-4.07,7.42-6.83,13.54-8.29,18.35c0.67-6.52,1-12.52,1-18.03
	c0-15.35-2.64-23.02-7.92-23.02c-1.61,0-3.52,0.78-5.73,2.33c-9.57,6.77-16.06,19.08-19.48,36.92c-0.15-1.56-0.22-3.47-0.22-5.75
	c0-11.55,1.24-22.48,3.72-32.79c-2.37,0.26-4.58,0.49-6.67,0.71C138.91,215.25,145.09,200.19,148.51,184.59z M80.63,305.25
	L94,287.23c8.21-11.55,15.71-22.38,22.4-32.78c0.15,6.89,0.61,14.32,1.39,22.31c0.99,10.32,2.28,18.99,3.87,26.01
	c-1.93-1.12-3.66-1.68-5.17-1.68c-1.36,0-2.5,0.38-3.42,1.14l0.11,3.78H80.63V305.25z M64.78,333.41h10.75l17.15,41.36h-27.9V333.41
	z"/>
<g class="st1">
	<path class="st2" d="M406.79,285.19c0.47,0,0.94,0.02,1.4,0.07c2.21,0.23,3.92,1.35,5.14,3.36c1.14,1.86,1.71,4.2,1.71,7.03
		c0,1.94-0.39,3.52-1.18,4.75c-0.67,1.05-1.5,1.69-2.48,1.92c-0.7,0.16-1.3,0.24-1.78,0.24c-1.67,0-2.73-1.09-3.15-3.27
		c-0.14-0.74-0.21-1.42-0.21-2.04c0-1.14,0.21-2.04,0.62-2.7c0.42-0.66,0.99-1,1.71-1c0.76,0,1.44,0.24,2.03,0.72
		c0.74,0.6,1.24,1.51,1.49,2.73c0.15,0.73,0.38,1.09,0.68,1.09c0.32,0,0.48-0.64,0.48-1.92c0-0.5-0.03-0.94-0.1-1.33
		c-0.2-1.11-0.48-1.93-0.85-2.46c-0.54-0.79-1.36-1.17-2.44-1.14c-3.52,0.1-5.28,1.29-5.28,3.57c0,0.23,0.04,0.69,0.12,1.39
		c0.08,0.7,0.12,1.2,0.12,1.49c0,2.39-1.2,3.58-3.59,3.58c-0.57,0-1.07-0.04-1.52-0.11c-1.84-0.26-3.3-0.98-4.4-2.15
		c-1.26-1.34-1.89-3.16-1.89-5.46c0-2.22,0.29-3.86,0.88-4.92c0.51-0.93,1.33-1.54,2.46-1.85c0.7-0.2,1.26-0.3,1.66-0.3
		c1.31,0,2.05,0.95,2.23,2.85c0.02,0.36,0.03,0.74,0.03,1.16c0,2.51-0.64,3.77-1.91,3.77c-1.11,0-1.94-0.44-2.49-1.32
		c-0.07-0.11-0.32-0.77-0.74-1.97c-0.05-0.14-0.13-0.21-0.24-0.21c-0.4,0-0.61,0.61-0.61,1.84c0,2.33,1.02,3.5,3.05,3.5
		c0.47,0,0.98-0.06,1.52-0.19c1.22-0.29,2.08-0.75,2.56-1.38c0.4-0.51,0.61-1.22,0.61-2.12c0-0.31-0.03-0.81-0.1-1.49
		c-0.06-0.69-0.1-1.2-0.1-1.54c0-1.33,0.29-2.33,0.88-2.99C403.86,285.59,405.07,285.19,406.79,285.19z"/>
	<path class="st2" d="M414.62,265.72c0.38,0.1,0.96,0.23,1.73,0.42c-0.51,1.49-1.28,3.81-2.3,6.95c-2.07-0.74-4.72-1.1-7.97-1.1
		c-2,0-3.35,0.08-4.07,0.25c-0.67,0.15-1,0.44-1,0.85c0,0.7,0.64,1.41,1.92,2.11c1.33,0.72,2.93,1.21,4.82,1.48
		c1.12-0.02,3.23-0.38,6.34-1.1c-1.13,1.71-1.7,3.4-1.7,5.09c0,1.13,0.31,2.02,0.92,2.67l-4.11-0.02c-0.17-0.26-0.26-0.59-0.26-0.97
		c0-0.56,0.21-1.15,0.64-1.78c-2.68,0.57-6.35,1.04-11,1.41c-4.01,0.32-7.38,0.49-10.13,0.49c-0.61,0-1.04,0.14-1.3,0.42
		c-0.16,0.17-0.3,0.49-0.42,0.97c-0.06,0.25-0.13,0.53-0.21,0.84c-0.06,0.2-0.57,0.3-1.52,0.3c-0.38,0-0.62-0.02-0.71-0.05
		c0.14-0.56,0.34-2.19,0.61-4.89l0.5-5.15c5.35,1.46,10.88,2.18,16.59,2.18c0.76,0,1.52-0.02,2.27-0.05
		c-2.79-0.57-5.32-1.43-7.59-2.59c-1.78-0.92-3.11-1.84-3.98-2.78c-0.59-0.63-0.88-1.2-0.88-1.71c0-0.89,0.94-1.57,2.81-2.02
		c1.52-0.37,3.46-0.56,5.82-0.56c1.12,0,2.02,0.02,2.7,0.07c3.57,0.26,6,0.39,7.29,0.39c1.62,0,2.75-0.11,3.41-0.33
		C414.19,266.94,414.45,266.34,414.62,265.72z"/>
	<path class="st2" d="M400.97,248.99c1.09,0,2.4,0.09,3.93,0.27c2.73,0.32,5,1.01,6.82,2.09c2.36,1.39,3.53,3.25,3.53,5.56
		c0,2.1-0.98,4.01-2.94,5.7c-2.08,1.8-4.57,2.69-7.48,2.69c-2.29,0-4.46-0.67-6.51-2.02c-2.33-1.53-3.72-3.51-4.17-5.96
		c-0.14-0.78-0.21-1.69-0.21-2.72c0-2.06,0.61-3.53,1.84-4.42C396.88,249.39,398.62,248.99,400.97,248.99z M403.48,251.03
		c-0.89,0-1.59,0.51-2.1,1.52c-0.45,0.92-0.68,2.1-0.68,3.53c0,1.58,0.64,3.12,1.91,4.61c1.2,1.41,2.34,2.11,3.41,2.11
		c0.74,0,1.36-0.45,1.85-1.35c0.5-0.9,0.75-2,0.75-3.28c0-1.63-0.56-3.23-1.68-4.79C405.83,251.81,404.67,251.03,403.48,251.03z"/>
	<path class="st2" d="M400.37,230.28c0.96,0,2.08,0.07,3.36,0.21c2.32,0.26,4.22,0.88,5.7,1.86c1.74,1.15,2.62,2.64,2.62,4.48
		c0,2.08-1.07,3.84-3.2,5.27c2.69-0.4,4.35-0.66,4.99-0.78c1.96-0.38,4.07-0.91,6.31-1.6c0.88,4.44,1.52,7.34,1.94,8.68
		c-0.57,0.09-1.05,0.14-1.45,0.14c-0.51,0-0.79-0.06-0.85-0.17c-0.67-1.34-1.43-2.02-2.27-2.02c0.06,0-0.41,0.02-1.39,0.07
		c-0.99,0.05-2.2,0.07-3.65,0.07c-5.5,0-9.9-0.32-13.2-0.97c0.6,0.66,0.9,1.31,0.9,1.95c0,0.25-0.05,0.47-0.16,0.65l-4.28,0.27
		c0.21-0.47,0.31-1.04,0.31-1.73c0-1.91-0.71-3.78-2.13-5.61c1.72,0.32,2.85,0.49,3.38,0.49c-1.35-1.35-2.17-2.83-2.46-4.42
		c-0.14-0.79-0.21-1.53-0.21-2.21c0-1.7,0.5-2.92,1.51-3.65C397.02,230.61,398.44,230.28,400.37,230.28z M402.6,233.55
		c-0.57,0-1.02,0.39-1.37,1.16c-0.37,0.8-0.55,1.88-0.55,3.24c0,1.11,0.43,2.25,1.29,3.4c0.86,1.15,1.67,1.73,2.43,1.73
		c0.43,0,0.8-0.28,1.11-0.83c0.35-0.65,0.52-1.55,0.52-2.72c0-1.41-0.38-2.76-1.13-4.05C404.15,234.2,403.38,233.55,402.6,233.55z"
		/>
	<path class="st2" d="M411.5,221.19c0.7,0,1.28,0.49,1.71,1.47c0.37,0.81,0.55,1.68,0.55,2.59c0,0.81-0.28,1.48-0.83,2
		c-0.62,0.59-1.48,0.88-2.58,0.88c-1.63,0-2.44-1.08-2.44-3.23c0-0.92,0.32-1.76,0.97-2.5C409.59,221.6,410.46,221.19,411.5,221.19z
		"/>
	<path class="st2" d="M400.71,201.66c2.66,0,3.98,1.38,3.98,4.13c0,1.38-0.36,2.51-1.07,3.42c-0.67,0.85-1.46,1.27-2.37,1.27
		c-1.44,0-2.58-0.52-3.41-1.55c-0.73-0.91-1.09-2-1.09-3.27c0-0.08-0.02-0.12-0.07-0.12c-0.17,0-0.4,0.29-0.68,0.88
		c-0.33,0.68-0.5,1.38-0.5,2.1c0,3.19,2.1,4.79,6.29,4.79c0.45,0,0.98-0.02,1.59-0.07c2.92-0.24,4.93-0.66,6.03-1.28
		c0.81-0.46,1.21-1.12,1.21-1.98c0-1.34-0.39-2.59-1.16-3.76c-0.68-1.04-1.56-1.88-2.63-2.5c-0.01-0.04,0.02-0.07,0.1-0.09
		c4.54,0.74,7.09,2.57,7.66,5.49c0.14,0.74,0.21,1.49,0.21,2.25c0,5.13-3.49,7.7-10.46,7.7c-3.4,0-5.91-0.63-7.54-1.9
		c-1.54-1.19-2.5-3.13-2.89-5.8c-0.09-0.65-0.14-1.28-0.14-1.9c0-2.23,0.58-4.08,1.73-5.55c1.03-1.31,2.25-2.03,3.66-2.17
		C399.64,201.68,400.16,201.66,400.71,201.66z"/>
	<path class="st2" d="M400.97,185.09c1.09,0,2.4,0.09,3.93,0.27c2.73,0.32,5,1.01,6.82,2.09c2.36,1.39,3.53,3.25,3.53,5.56
		c0,2.1-0.98,4.01-2.94,5.71c-2.08,1.8-4.57,2.69-7.48,2.69c-2.29,0-4.46-0.67-6.51-2.02c-2.33-1.53-3.72-3.51-4.17-5.95
		c-0.14-0.78-0.21-1.69-0.21-2.72c0-2.06,0.61-3.53,1.84-4.42C396.88,185.49,398.62,185.09,400.97,185.09z M403.48,187.13
		c-0.89,0-1.59,0.51-2.1,1.52c-0.45,0.92-0.68,2.1-0.68,3.53c0,1.58,0.64,3.12,1.91,4.61c1.2,1.41,2.34,2.11,3.41,2.11
		c0.74,0,1.36-0.45,1.85-1.35c0.5-0.9,0.75-2,0.75-3.29c0-1.63-0.56-3.23-1.68-4.79C405.83,187.91,404.67,187.13,403.48,187.13z"/>
	<path class="st2" d="M400.75,155.86c3.34,0,6.64,1.44,9.91,4.31l0.74-3.24c0.32-0.17,0.83-0.39,1.52-0.68
		c-0.05,0.62-0.07,1.77-0.07,3.45c0,1.56,0.02,3.25,0.07,5.08c-0.98-0.58-2.6-1.19-4.85-1.84c-2.45-0.7-4.37-1.06-5.77-1.06
		c-1.18,0-1.77,0.28-1.77,0.83c0,0.9,1.11,1.86,3.33,2.88c1.8,0.83,3.84,1.5,6.11,2.02c2.3,0,3.74-0.1,4.33-0.31
		c0.18-0.32,0.4-0.86,0.64-1.61c0.22,0.09,0.79,0.24,1.7,0.46l-2.17,6.47c-2.17-0.76-4.95-1.14-8.33-1.14
		c-1.54,0-2.51,0.02-2.91,0.06c-1.4,0.13-2.1,0.46-2.1,0.98c0,0.2,0.12,0.45,0.35,0.77c0.96,1.31,3.17,2.27,6.63,2.87
		c1.1-0.02,3.18-0.38,6.25-1.09c-1.14,1.71-1.71,3.56-1.71,5.56c0,1.31,0.31,2.2,0.94,2.69l-4.02-0.05
		c-0.14-0.25-0.21-0.56-0.21-0.93c0-0.6,0.19-1.19,0.57-1.77c-2.33,0.66-6.37,1.26-12.11,1.79c-0.77,0.08-1.23,0.38-1.37,0.9
		c-0.03,0.48-0.07,0.96-0.12,1.44c-0.06,0.29-0.76,0.44-2.11,0.44v-0.25c0-0.9-0.21-4.07-0.64-9.51c2.49,0.84,5.28,1.26,8.37,1.26
		c0.67,0,1.24-0.02,1.7-0.07c-4.53-0.94-8-2.74-10.43-5.4c-0.64-0.7-0.95-1.3-0.95-1.82c0-1.48,2.41-2.22,7.24-2.22
		c1.42,0,2.7,0.05,3.83,0.15c-1.88-0.75-3.49-1.59-4.83-2.5c-2.29-1.59-3.43-3.23-3.43-4.93c0-1.15,0.53-2.11,1.58-2.87
		C397.72,156.24,399.08,155.86,400.75,155.86z"/>
</g>
<g>
	<circle cx="250" cy="250" r="239.7"/>
	<path class="st3" d="M250,493.2c-64.96,0-126.03-25.3-171.97-71.23C32.1,376.03,6.8,314.96,6.8,250
		c0-64.96,25.3-126.03,71.23-171.97S185.04,6.8,250,6.8s126.03,25.3,171.97,71.23S493.2,185.04,493.2,250
		c0,64.96-25.3,126.03-71.23,171.97C376.03,467.9,314.96,493.2,250,493.2z M250,13.8C119.76,13.8,13.8,119.76,13.8,250
		S119.76,486.2,250,486.2S486.2,380.24,486.2,250S380.24,13.8,250,13.8z"/>
</g>
<g>
	<path class="st4" d="M226.67,238.35c-3.99,4.33-7.4,7.58-10.24,9.75c-2.84,2.17-5.6,3.25-8.28,3.25c-2.11,0-3.77-0.81-5-2.42
		c-1.23-1.62-1.84-3.79-1.84-6.53c0-3.84,0.86-8.7,2.58-14.6c1.72-5.9,2.58-9.48,2.58-10.76c0-1.14-0.53-1.71-1.58-1.71
		c-0.32,0-0.7,0.13-1.15,0.37c-0.48,0.25-1.02,0.6-1.63,1.07c-0.61,0.5-1.26,1.1-1.96,1.81c-0.7,0.71-1.44,1.53-2.2,2.45
		c-0.83,0.92-1.66,1.94-2.49,3.04c-1.4,1.85-2.23,3.39-2.49,4.63l-1.59,7.62l-2.89,12.58l-12.13,2.44L181,229.4
		c0.35-1.6,0.77-3.94,1.24-7.03c0.48-3.09,0.72-4.94,0.72-5.54c0-1.21-0.37-1.81-1.1-1.81c-0.22,0-0.54,0.12-0.96,0.37
		c-0.48,0.25-1.02,0.62-1.63,1.12c-0.7,0.57-1.45,1.24-2.25,2.02c-0.86,0.85-1.79,1.83-2.78,2.93c-1.05,1.17-2.14,2.47-3.25,3.89
		c-1.53,1.92-2.49,4.16-2.87,6.71c-0.51,3.05-0.86,5.79-1.05,8.2c-0.22,2.42-0.35,5.11-0.38,8.1l-10.63,2.82
		c-0.26-4.08-0.38-7.49-0.38-10.23c0-6.5,0.61-12.16,1.82-16.97c1.21-4.81,3.19-10.43,5.94-16.86l11.58-2.5
		c-2.07,5.79-3.69,11.38-4.83,16.78c8.58-11.12,15.16-16.68,19.72-16.68c1.66,0,3.01,0.76,4.04,2.26c1.04,1.51,1.56,3.49,1.56,5.94
		c0,1.14-0.16,3.23-0.48,6.29c5.39-6,9.27-9.92,11.61-11.75c2.35-1.83,4.51-2.74,6.49-2.74c1.76,0,3.19,0.78,4.31,2.35
		c1.12,1.56,1.68,3.55,1.68,5.97c0,3.8-0.94,8.69-2.82,14.66c-1.88,5.97-2.82,9.91-2.82,11.83c0,1.99,0.65,2.98,1.96,2.98
		c0.83,0,1.98-0.61,3.46-1.84c1.48-1.23,4.07-4.04,7.77-8.44V238.35z"/>
	<path class="st4" d="M277.79,238.35c-5.11,5.4-8.76,8.92-10.96,10.55c-2.2,1.63-4.31,2.45-6.32,2.45c-5.04,0-7.42-4.95-7.13-14.86
		c-3.19,5.08-6.14,8.83-8.83,11.24c-2.7,2.42-5.48,3.62-8.35,3.62c-2.81,0-5.19-1.46-7.16-4.4c-1.96-2.93-2.94-6.53-2.94-10.79
		c0-5.33,1.32-10.41,3.95-15.24c2.63-4.83,6.01-8.74,10.12-11.72c4.12-2.98,7.75-4.48,10.91-4.48c3.99,0,6.78,2.04,8.38,6.13
		l9.78-6.02h2.69l-4.22,15.61c-2.17,7.85-3.26,13.23-3.26,16.14c0,3.05,0.97,4.58,2.92,4.58c1.24,0,2.62-0.74,4.11-2.21
		c1.5-1.47,3.6-3.72,6.32-6.74V238.35z M242.75,241.28c3.19,0,6.2-3.03,9.02-9.08c2.82-6.06,4.24-11.64,4.24-16.76
		c0-1.99-0.4-3.54-1.2-4.66c-0.8-1.12-1.87-1.68-3.21-1.68c-3.19,0-6.22,3.02-9.07,9.06c-2.86,6.04-4.28,11.6-4.28,16.68
		c0,1.92,0.42,3.47,1.27,4.66C240.37,240.68,241.44,241.28,242.75,241.28z"/>
	<path class="st4" d="M313.55,238.35c-8.01,8.74-14.19,13.11-18.52,13.11c-1.95,0-3.59-0.91-4.93-2.74
		c-1.34-1.83-2.01-4.09-2.01-6.79c0-5.01,2.41-11.72,7.23-20.14c-2.36,1.35-4.95,2.29-7.75,2.82c-2.07,4.26-5.33,8.84-9.76,13.75
		h-1.1v-4.79c2.49-2.88,4.74-5.97,6.75-9.27c-2.74-1.35-4.12-3.36-4.12-6.02c0-2.73,0.84-5.66,2.51-8.76
		c1.68-3.11,3.98-4.66,6.92-4.66c2.49,0,3.73,1.42,3.73,4.26c0,2.24-0.72,5.43-2.15,9.59c5.3-0.64,9.92-5.15,13.88-13.53l4.36-0.21
		l-4.45,13.64c-1.85,5.75-3.05,9.67-3.59,11.75c-0.54,2.08-0.81,3.92-0.81,5.51c0,1.49,0.31,2.68,0.93,3.57
		c0.62,0.89,1.46,1.33,2.51,1.33c1.15,0,2.25-0.43,3.3-1.31c1.05-0.87,3.41-3.28,7.08-7.22V238.35z"/>
</g>
<path class="st4" d="M423.09,272.06h-16.84l-0.53,33.8l-10.75-36.89l-17.02,4.96l10.29,35.31h-15.42l-11.73-40.27l-17.02,4.96
	l10.29,35.31h-15.42l-11.73-40.27l-17.02,4.96l10.29,35.31h-15.42l-11.73-40.27l-17.02,4.96l10.29,35.31h-15.42l-11.73-40.27
	l-17.02,4.96l10.29,35.31h-15.42l-11.73-40.27l-17.02,4.96l10.29,35.31H203.4l-11.73-40.27l-17.02,4.96l10.29,35.31h-15.42
	l-11.73-40.27l-17.02,4.96l10.29,35.31h-15.42l-11.73-40.27l-17.02,4.96l10.29,35.31h-16.32v-37.18H83.09l-0.59,37.18h-0.32v12.03
	c0,4.83,3.92,8.75,8.75,8.75h314.41h18.67c1.97,0,3.53-1.68,3.37-3.65L423.09,272.06z"/>
<rect x="166.19" y="107.56" class="st4" width="188.62" height="20.78"/>
<rect x="166.19" y="149.86" class="st4" width="188.62" height="20.78"/>
<path class="st4" d="M169.84,260.66c-0.97-11.16-4.41-16.76-10.35-16.76c-1.24,0-2.2,0.47-2.89,1.41c-0.7,0.94-1.06,3.09-1.1,6.46
	c-0.04,3.37-0.37,5.48-0.98,6.33c-0.62,0.85-1.5,1.28-2.66,1.28h-46.4c0-4.38,1.43-8.92,4.28-13.6c2.85-4.68,10.32-11.79,22.4-21.33
	c12.08-9.54,21.6-17.7,28.59-24.49c6.98-6.79,12.87-14.59,17.65-23.4c4.78-8.81,7.18-18.5,7.18-29.07c0-13.58-3.15-24.96-9.45-34.16
	c-6.3-9.2-14.37-15.45-24.22-18.76c-9.85-3.31-18.18-4.96-24.98-4.96c-19.01,0-34.12,5.05-45.32,15.16
	c-11.2,10.11-16.81,23.72-16.81,40.83c0,10.92,2.68,20.45,8.06,28.57c5.37,8.13,12.11,12.19,20.23,12.19
	c4.33,0,8.04-1.12,11.13-3.37c3.09-2.25,4.64-5.02,4.64-8.3c0-3.55-0.97-6.34-2.9-8.37c-1.93-2.03-4.21-3.05-6.84-3.05
	c-1.24,0-2.65,0.34-4.23,1.03c-1.58,0.69-2.72,1.03-3.42,1.03c-2.55,0-5.49-2.2-8.81-6.62c-3.32-4.41-4.98-10.39-4.98-17.93
	c0-8.82,2.03-15.99,6.09-21.52c4.06-5.52,9.64-9.76,16.75-12.72c7.11-2.95,13.52-4.43,19.24-4.43c13.45,0,23.45,4.42,30.02,13.27
	c6.57,8.85,9.85,18.51,9.85,28.99c0,19.33-6.19,36.07-18.57,50.25c-12.38,14.17-21.13,23.54-26.23,28.09
	c-9.83,8.68-17.63,18.17-23.39,28.47c-5.77,10.31-8.65,18.53-8.65,24.67c0,2.25,0.68,3.74,2.03,4.48c1.35,0.74,3.53,1.1,6.55,1.1
	h71.75c1.12,0,2.17-0.2,3.14-0.6v0.6h188.62v-20.78H169.84z"/>
<path class="st3" d="M424.01,281.43H307.04l17.32-166.69c0.42-4.09,3.87-7.19,7.98-7.19h66.91c3.8,0,6.98,2.87,7.38,6.65
	L424.01,281.43z"/>
<g>
	<g>
		<path class="st5" d="M343.7,108.21l-9.08-1.31c4.85-41.75,21.24-50.25,35.62-48.79c15.06,1.54,29.3,13.16,29.5,49.41l-9.15,0.06
			c-0.19-33.82-13.6-38.55-21.19-39.33C362.28,67.53,348.22,69.34,343.7,108.21z"/>
	</g>
</g>
<g>
	<path class="st6" d="M364.91,262.46c0.34,0,0.68-0.13,1.03-0.39c0.35-0.26,0.97-1.1,1.86-2.52s1.77-2.38,2.62-2.87
		c0.86-0.5,1.76-0.74,2.71-0.74c1.48,0,2.66,0.52,3.54,1.56s1.32,2.38,1.32,4.02c0,0.91-0.24,1.81-0.71,2.72
		c-0.48,0.9-0.95,1.35-1.44,1.35c-0.4,0-0.89,0.02-1.47,0.07c-0.58,0.05-1.05,0.07-1.4,0.07c-0.72,0-1.08-0.28-1.08-0.84
		c0-0.16,0.08-0.31,0.24-0.45s0.7-0.35,1.61-0.64c0.92-0.29,1.54-0.65,1.88-1.07c0.34-0.42,0.5-0.89,0.5-1.42
		c0-0.65-0.26-1.19-0.77-1.64c-0.51-0.45-1.17-0.68-1.97-0.68c-0.53,0-1.02,0.15-1.48,0.46c-0.46,0.31-1.08,1.14-1.85,2.5
		s-1.53,2.25-2.27,2.66c-0.74,0.41-1.54,0.61-2.4,0.61c-1.14,0-2.1-0.44-2.87-1.33c-0.77-0.89-1.16-1.92-1.16-3.1
		c0-0.98,0.2-1.94,0.61-2.87s0.84-1.4,1.3-1.4c0.28,0,0.62-0.02,1.03-0.07c0.41-0.05,0.74-0.07,0.99-0.07c0.31,0,0.58,0.07,0.81,0.2
		c0.23,0.13,0.35,0.29,0.35,0.49c0,0.29-0.08,0.49-0.25,0.61s-0.47,0.23-0.9,0.32s-0.77,0.26-1.02,0.47s-0.48,0.51-0.69,0.88
		s-0.31,0.77-0.31,1.22c0,0.45,0.17,0.88,0.52,1.29S364.51,262.46,364.91,262.46z"/>
	<path class="st6" d="M374.26,248.8c0.41,0,0.76-0.09,1.04-0.28c0.29-0.18,0.48-0.59,0.58-1.21c0.1-0.62,0.24-1,0.42-1.13
		c0.18-0.13,0.4-0.2,0.67-0.2c0.47,0,0.71,0.35,0.71,1.05c0,0.37-0.05,0.92-0.14,1.64c-0.1,0.73-0.14,1.27-0.14,1.64
		c0,0.34,0.05,0.85,0.14,1.51c0.09,0.66,0.14,1.17,0.14,1.51c0,0.86-0.27,1.29-0.8,1.29c-0.25,0-0.46-0.06-0.61-0.18
		c-0.16-0.12-0.28-0.51-0.37-1.15c-0.09-0.64-0.35-1.07-0.79-1.27c-0.44-0.2-0.95-0.3-1.54-0.3h-23.67c-0.37,0-0.69,0.1-0.99,0.31
		c-0.29,0.21-0.56,0.62-0.81,1.23c-0.25,0.61-0.44,0.98-0.57,1.1c-0.13,0.12-0.27,0.17-0.42,0.17c-0.52,0-0.78-0.36-0.78-1.09
		c0-0.21,0.03-0.53,0.09-0.96c0.06-0.43,0.09-0.75,0.09-0.96c0-0.22-0.07-0.53-0.2-0.93c-0.13-0.4-0.2-0.7-0.2-0.9
		c0-0.27,0.1-0.49,0.29-0.66c0.19-0.17,0.68-0.25,1.47-0.25H374.26z M373.93,239.58c0.53,0,0.98-0.1,1.37-0.29
		c0.39-0.19,0.63-0.59,0.72-1.2s0.22-0.97,0.39-1.09c0.16-0.12,0.36-0.18,0.6-0.18c0.34,0,0.55,0.09,0.62,0.27
		c0.07,0.18,0.11,0.53,0.11,1.06c0,0.32-0.04,0.81-0.11,1.46c-0.07,0.65-0.11,1.13-0.11,1.44c0,0.34,0.04,0.85,0.13,1.53
		c0.09,0.68,0.13,1.19,0.13,1.53c0,0.79-0.32,1.18-0.96,1.18c-0.22,0-0.4-0.06-0.54-0.18c-0.14-0.12-0.25-0.49-0.33-1.11
		c-0.08-0.62-0.3-1.03-0.67-1.23c-0.37-0.2-0.8-0.3-1.3-0.3c-0.76,0-1.89,0.01-3.39,0.04c-1.5,0.02-2.62,0.04-3.39,0.04
		c-0.69,0-1.22,0.17-1.59,0.5c-0.37,0.34-0.56,0.81-0.56,1.42s0.35,1.3,1.05,2.08c0.44,0.49,0.66,0.85,0.66,1.1
		c0,0.12-0.08,0.25-0.24,0.38c-0.16,0.13-0.33,0.2-0.49,0.2c-0.76,0-1.58-0.64-2.48-1.92s-1.35-2.31-1.35-3.08
		c0-0.75,0.26-1.46,0.79-2.15c0.53-0.69,1.18-1.15,1.95-1.38c0.35-0.12,1.56-0.18,3.62-0.18c0.88,0,1.94,0.01,3.17,0.03
		C372.99,239.57,373.71,239.58,373.93,239.58z"/>
	<path class="st6" d="M361.44,228.06c0-2.04,0.83-3.81,2.5-5.33c1.67-1.52,3.59-2.27,5.77-2.27c2.44,0,4.43,0.72,5.97,2.17
		c1.54,1.45,2.31,3.39,2.31,5.82c0,1.91-0.78,3.64-2.35,5.16s-3.51,2.29-5.84,2.29c-2.22,0-4.17-0.67-5.85-2.02
		C362.28,232.54,361.44,230.6,361.44,228.06z M376.06,228.04c0-1.41-0.61-2.54-1.82-3.38c-1.21-0.84-2.75-1.26-4.61-1.26
		c-1.83,0-3.33,0.45-4.5,1.35c-1.17,0.9-1.76,2.05-1.76,3.43c0,1.42,0.57,2.53,1.72,3.31s2.63,1.18,4.45,1.18
		c2,0,3.59-0.44,4.76-1.31C375.48,230.5,376.06,229.39,376.06,228.04z"/>
	<path class="st6" d="M380.73,216.66c-0.83-0.07-3.14-0.11-6.92-0.11c-1.83,0-4.49,0.04-8,0.11c-0.36,0.02-0.68,0.15-0.95,0.38
		c-0.27,0.23-0.48,0.7-0.62,1.43c-0.1,0.55-0.23,0.91-0.38,1.08c-0.15,0.17-0.33,0.25-0.56,0.25c-0.58,0-0.87-0.38-0.87-1.14
		c0-0.15,0.07-0.51,0.21-1.09s0.21-0.94,0.21-1.09c0-0.16-0.08-0.49-0.25-1c-0.17-0.5-0.25-0.82-0.25-0.94
		c0-0.33,0.09-0.54,0.26-0.63c0.18-0.09,0.45-0.13,0.81-0.13h7.74c1.58,0,2.83-0.42,3.76-1.25s1.39-1.81,1.39-2.93
		c0-0.54-0.28-1.23-0.84-2.07c-0.56-0.84-1.37-1.5-2.44-1.97c-1.06-0.47-2.27-0.71-3.61-0.71c-1.59,0-3,0.41-4.24,1.22
		c-1.24,0.82-1.86,1.76-1.86,2.84c0,0.65,0.14,1.25,0.43,1.79c0.29,0.55,0.43,0.9,0.43,1.08s-0.07,0.33-0.2,0.46
		c-0.13,0.13-0.29,0.2-0.48,0.2c-0.43,0-0.87-0.45-1.32-1.35s-0.68-1.68-0.68-2.32c0-1.98,0.75-3.65,2.26-4.99
		c1.51-1.34,3.56-2.01,6.15-2.01c2.01,0,3.85,0.69,5.53,2.08c1.68,1.38,2.52,3.05,2.52,5c0,0.75-0.12,1.46-0.35,2.12
		c-0.23,0.67-0.78,1.54-1.62,2.62c0,0.1,0.37,0.15,1.12,0.15c1.86,0,3.27,0.1,4.25,0.31c0.97,0.21,1.82,0.57,2.54,1.07
		c0.72,0.5,1.23,1,1.53,1.49c0.3,0.49,0.45,0.96,0.45,1.41c0,0.68-0.19,1.02-0.58,1.02c-0.16,0-0.34-0.15-0.54-0.46
		c-0.48-0.74-1.11-1.24-1.87-1.51C382.09,216.8,381.38,216.66,380.73,216.66z"/>
	<path class="st6" d="M373.19,198.71c0-0.52,0.21-0.98,0.64-1.36s0.97-0.57,1.65-0.57c0.69,0,1.23,0.18,1.61,0.55
		c0.39,0.37,0.58,0.8,0.58,1.3c0,0.44-0.22,0.88-0.67,1.32c-0.45,0.44-0.96,0.66-1.53,0.66c-0.61,0-1.15-0.19-1.6-0.57
		C373.42,199.67,373.19,199.22,373.19,198.71z"/>
	<path class="st6" d="M374.37,182.26c0-0.34,0.34-0.52,1.03-0.52c0.44,0,1,0.62,1.69,1.86c0.69,1.24,1.04,2.54,1.04,3.9
		c0,2.23-0.81,4.15-2.43,5.74c-1.62,1.6-3.65,2.39-6.11,2.39c-2.18,0-4.1-0.75-5.75-2.26s-2.48-3.31-2.48-5.41
		c0-1.13,0.28-2.41,0.83-3.85c0.55-1.44,1.06-2.15,1.51-2.15c0.82,0,1.48-0.04,1.99-0.11c0.51-0.07,0.8-0.11,0.88-0.11
		c0.66,0,0.98,0.25,0.98,0.77c0,0.39-0.44,0.69-1.32,0.9c-0.88,0.21-1.58,0.67-2.1,1.35c-0.52,0.69-0.78,1.53-0.78,2.54
		c0,1.26,0.56,2.44,1.67,3.53c1.12,1.09,2.69,1.63,4.74,1.63c1.88,0,3.42-0.61,4.61-1.83c1.2-1.22,1.8-2.48,1.8-3.8
		c0-0.48-0.07-0.98-0.22-1.49c-0.15-0.52-0.45-1.09-0.9-1.72C374.6,182.98,374.37,182.53,374.37,182.26z"/>
	<path class="st6" d="M361.44,172.54c0-2.04,0.83-3.81,2.5-5.33c1.67-1.52,3.59-2.27,5.77-2.27c2.44,0,4.43,0.72,5.97,2.17
		c1.54,1.45,2.31,3.39,2.31,5.82c0,1.91-0.78,3.64-2.35,5.16s-3.51,2.29-5.84,2.29c-2.22,0-4.17-0.67-5.85-2.02
		C362.28,177.02,361.44,175.08,361.44,172.54z M376.06,172.52c0-1.41-0.61-2.54-1.82-3.38c-1.21-0.84-2.75-1.26-4.61-1.26
		c-1.83,0-3.33,0.45-4.5,1.35c-1.17,0.9-1.76,2.05-1.76,3.43c0,1.42,0.57,2.53,1.72,3.31s2.63,1.18,4.45,1.18
		c2,0,3.59-0.44,4.76-1.31C375.48,174.98,376.06,173.87,376.06,172.52z"/>
	<path class="st6" d="M365.79,152.7c-0.32,0-0.6,0.12-0.82,0.36c-0.23,0.24-0.34,0.5-0.34,0.78c0,0.61,0.41,1.33,1.24,2.16
		c0.51,0.49,0.76,0.84,0.76,1.06c0,0.32-0.17,0.48-0.5,0.48c-0.75,0-1.61-0.57-2.6-1.72c-0.99-1.15-1.48-2.18-1.48-3.1
		c0-0.79,0.33-1.47,1-2.06c0.67-0.59,1.45-0.88,2.36-0.88l8.87,0.04c0.45,0,0.83-0.13,1.13-0.39c0.3-0.26,0.45-0.56,0.45-0.92
		c0-0.63,0.3-0.94,0.89-0.94c0.52,0,0.78,0.33,0.78,0.98c0,0.07-0.05,0.44-0.14,1.1s-0.14,1.21-0.14,1.65
		c0,0.74,0.05,1.36,0.16,1.86s0.16,0.83,0.16,0.98c0,0.22-0.09,0.42-0.26,0.58c-0.17,0.17-0.39,0.25-0.66,0.25
		c-0.42,0-0.62-0.21-0.62-0.64c0-0.39-0.15-0.76-0.45-1.1c-0.3-0.34-0.75-0.52-1.35-0.52H365.79z M365.79,144.28
		c-0.32,0-0.6,0.12-0.82,0.36c-0.23,0.24-0.34,0.5-0.34,0.78c0,0.49,0.33,1.09,1,1.81c0.67,0.72,1,1.19,1,1.42
		c0,0.15-0.05,0.28-0.16,0.4s-0.24,0.17-0.38,0.17c-0.66,0-1.49-0.54-2.49-1.62c-1-1.08-1.5-2.18-1.5-3.29
		c0-1.3,0.65-2.19,1.95-2.67c0.4-0.17,2.56-0.26,6.5-0.26l3.73,0.04c0.47,0,0.82-0.1,1.05-0.31c0.23-0.21,0.4-0.53,0.5-0.96
		c0.1-0.43,0.22-0.69,0.37-0.78c0.14-0.09,0.31-0.14,0.5-0.14c0.55,0,0.82,0.3,0.82,0.9c0,0.09-0.05,0.46-0.14,1.11
		s-0.14,1.21-0.14,1.66c0,0.46,0.05,0.95,0.16,1.49s0.16,0.98,0.16,1.34c0,0.22-0.09,0.42-0.26,0.58c-0.17,0.17-0.39,0.25-0.66,0.25
		c-0.46,0-0.72-0.29-0.79-0.86c-0.07-0.57-0.24-0.95-0.54-1.13c-0.29-0.18-0.66-0.28-1.1-0.28H365.79z M365.83,161.07
		c-0.53,0-0.94,0.13-1.23,0.4c-0.29,0.26-0.44,0.52-0.44,0.76c0,0.74-0.27,1.1-0.82,1.1c-0.64,0-0.96-0.26-0.96-0.79
		c0-0.15,0.05-0.43,0.15-0.86c0.1-0.42,0.15-0.75,0.15-0.97c0-0.3-0.04-0.6-0.13-0.91c-0.09-0.31-0.13-0.53-0.13-0.64
		c0-0.33,0.1-0.55,0.3-0.67c0.2-0.11,1-0.19,2.4-0.24c1.41-0.05,3.04-0.07,4.9-0.07l3.82,0.04c0.67,0,1.09-0.03,1.26-0.1
		c0.17-0.07,0.33-0.21,0.49-0.44c0.16-0.23,0.26-0.49,0.31-0.8c0.04-0.31,0.11-0.53,0.21-0.67s0.3-0.21,0.61-0.21
		c0.52,0,0.78,0.31,0.78,0.94c0,0.46-0.05,0.92-0.16,1.38s-0.16,0.93-0.16,1.38c0,0.37,0.05,0.82,0.16,1.36s0.16,0.94,0.16,1.21
		c0,0.69-0.24,1.03-0.71,1.03c-0.36,0-0.59-0.06-0.7-0.19c-0.11-0.13-0.19-0.36-0.24-0.71c-0.05-0.34-0.17-0.62-0.35-0.84
		s-0.42-0.35-0.71-0.41c-0.29-0.06-0.89-0.08-1.8-0.08H365.83z"/>
</g>
<path class="st4" d="M117.77,328.7c-20.62,0-37.34,18.61-37.34,41.56s16.72,41.56,37.34,41.56c20.62,0,37.34-18.61,37.34-41.56
	S138.39,328.7,117.77,328.7z M117.77,390.24c-9.91,0-17.95-8.95-17.95-19.98s8.04-19.98,17.95-19.98c9.91,0,17.95,8.95,17.95,19.98
	S127.68,390.24,117.77,390.24z"/>
<path class="st4" d="M395.18,328.7c-20.62,0-37.34,18.61-37.34,41.56s16.72,41.56,37.34,41.56c20.62,0,37.34-18.61,37.34-41.56
	S415.8,328.7,395.18,328.7z M395.18,390.24c-9.91,0-17.95-8.95-17.95-19.98s8.04-19.98,17.95-19.98c9.91,0,17.95,8.95,17.95,19.98
	S405.09,390.24,395.18,390.24z"/>
</svg>
